<svg width="32" height="32" viewBox="0 0 32 32" fill="none" xmlns="http://www.w3.org/2000/svg">
<path d="M28.4332 12.4105C27.4225 12.4105 26.5332 12.8358 25.8785 13.4985C23.4719 11.8078 20.2265 10.7198 16.6305 10.6038L18.4985 2.0625L24.4465 3.41717C24.4465 4.8945 25.6332 6.10117 27.0892 6.10117C28.5732 6.10117 29.7665 4.8625 29.7665 3.38384C29.7665 1.90517 28.5812 0.666504 27.0905 0.666504C26.0519 0.666504 25.1559 1.3025 24.7092 2.17184L18.1399 0.694504C17.8092 0.605171 17.4852 0.845171 17.3972 1.18117L15.3465 10.5972C11.7785 10.7478 8.56786 11.8345 6.15319 13.5265C5.49852 12.8358 4.57453 12.4105 3.56386 12.4105C-0.185475 12.4105 -1.41348 17.5158 2.01986 19.2612C1.89852 19.8012 1.84386 20.3772 1.84386 20.9518C1.84386 26.6865 8.21052 31.3332 16.0279 31.3332C23.8785 31.3332 30.2452 26.6865 30.2452 20.9518C30.2452 20.3772 30.1852 19.7745 30.0372 19.2332C33.4012 17.4812 32.1625 12.4132 28.4332 12.4105ZM7.46786 19.6238C7.46786 18.1185 8.65453 16.9065 10.1452 16.9065C11.6012 16.9065 12.7892 18.1105 12.7892 19.6238C12.7892 21.1025 11.6025 22.3078 10.1452 22.3078C8.66119 22.3145 7.46786 21.1025 7.46786 19.6238ZM21.9199 26.0212C19.4652 28.5118 12.5385 28.5118 10.0825 26.0212C9.81186 25.7812 9.81186 25.3572 10.0825 25.0838C10.3185 24.8438 10.7372 24.8438 10.9732 25.0838C12.8479 27.0345 19.0665 27.0678 21.0225 25.0838C21.2585 24.8438 21.6772 24.8438 21.9132 25.0838C22.1892 25.3585 22.1892 25.7825 21.9199 26.0212ZM21.8652 22.3132C20.4092 22.3132 19.2225 21.1092 19.2225 19.6318C19.2225 18.1265 20.4092 16.9145 21.8652 16.9145C23.3492 16.9145 24.5425 18.1185 24.5425 19.6318C24.5359 21.1025 23.3492 22.3132 21.8652 22.3132Z" fill="white"/>
</svg>
