<svg width="76" height="76" viewBox="0 0 76 76" fill="none" xmlns="http://www.w3.org/2000/svg">
<path d="M28 28C30.7195 28 33.3779 27.1936 35.6391 25.6827C37.9003 24.1718 39.6626 22.0244 40.7033 19.5119C41.744 16.9994 42.0163 14.2348 41.4858 11.5675C40.9552 8.90028 39.6457 6.45026 37.7227 4.52729C35.7997 2.60432 33.3497 1.29476 30.6825 0.764209C28.0153 0.233662 25.2506 0.505958 22.7381 1.54666C20.2256 2.58737 18.0782 4.34974 16.5673 6.61092C15.0564 8.87209 14.25 11.5305 14.25 14.25C14.2543 17.8954 15.7043 21.3903 18.282 23.968C20.8597 26.5457 24.3546 27.9957 28 28ZM28 3.00001C30.225 3.00001 32.4001 3.65981 34.2502 4.89597C36.1002 6.13214 37.5422 7.88915 38.3936 9.94482C39.2451 12.0005 39.4679 14.2625 39.0338 16.4448C38.5997 18.6271 37.5283 20.6316 35.9549 22.205C34.3816 23.7783 32.3771 24.8498 30.1948 25.2838C28.0125 25.7179 25.7505 25.4951 23.6948 24.6437C21.6391 23.7922 19.8821 22.3502 18.646 20.5002C17.4098 18.6501 16.75 16.475 16.75 14.25C16.7533 11.2673 17.9396 8.40778 20.0487 6.29871C22.1578 4.18964 25.0173 3.00331 28 3.00001Z" fill="#793AFF"/>
<path d="M26.75 23H29.25V20.5C29.913 20.5 30.5489 20.2366 31.0178 19.7678C31.4866 19.2989 31.75 18.663 31.75 18V15.5C31.75 14.837 31.4866 14.2011 31.0178 13.7322C30.5489 13.2634 29.913 13 29.25 13H26.75V10.5H31.75V8H29.25V5.5H26.75V8C26.087 8 25.4511 8.26339 24.9822 8.73223C24.5134 9.20107 24.25 9.83696 24.25 10.5V13C24.25 13.663 24.5134 14.2989 24.9822 14.7678C25.4511 15.2366 26.087 15.5 26.75 15.5H29.25V18H24.25V20.5H26.75V23Z" fill="#793AFF"/>
<path d="M75.5 3H73V0.5H70.5V3H68V5.5H70.5V8H73V5.5H75.5V3Z" fill="#793AFF"/>
<path d="M70.5 14.25H68V16.75H65.5V19.25H68V21.75H70.5V19.25H73V16.75H70.5V14.25Z" fill="#793AFF"/>
<path d="M51.75 9.25H54.25V6.75H56.75V4.25H54.25V1.75H51.75V4.25H49.25V6.75H51.75V9.25Z" fill="#793AFF"/>
<path d="M47.9999 63H60.4999C66.5999 63 71.7499 57.275 71.7499 50.5V45.5C71.7499 39.0125 67.8874 30.6875 62.8624 25.8875C63.3456 25.4995 63.724 24.9967 63.963 24.4249C64.202 23.8531 64.294 23.2305 64.2306 22.614C64.1672 21.9976 63.9505 21.4068 63.6001 20.8956C63.2498 20.3844 62.777 19.9691 62.2249 19.6875L65.4374 9.62501C65.5112 9.4037 65.5198 9.16583 65.4622 8.93976C65.4046 8.7137 65.2831 8.50897 65.1124 8.35C64.9435 8.18659 64.7319 8.0741 64.502 8.02546C64.272 7.97682 64.033 7.99399 63.8124 8.07501L54.1124 11.7125L45.6749 10.5125C45.4696 10.4797 45.2594 10.5004 45.0645 10.5727C44.8696 10.645 44.6966 10.7663 44.5624 10.925C44.4276 11.0806 44.3323 11.2663 44.2844 11.4664C44.2366 11.6666 44.2376 11.8753 44.2874 12.075L46.3249 19.6625C45.7644 19.9378 45.2824 20.3501 44.9236 20.8611C44.5648 21.3722 44.3407 21.9656 44.2722 22.5863C44.2036 23.2069 44.2928 23.8349 44.5314 24.412C44.7701 24.989 45.1505 25.4965 45.6374 25.8875C40.6124 30.6875 36.7499 39.0125 36.7499 45.5V46.3375L26.0874 40.65C25.9199 40.5578 25.733 40.5064 25.5419 40.4999C25.3508 40.4933 25.1608 40.5319 24.9874 40.6125L15.4999 44.825V44.25C15.4999 43.9185 15.3682 43.6005 15.1338 43.3661C14.8994 43.1317 14.5814 43 14.2499 43H9.24989C8.91837 43 8.60043 43.1317 8.36601 43.3661C8.13159 43.6005 7.99989 43.9185 7.99989 44.25V45.0125L2.14989 43.0625C1.96191 43.0005 1.76189 42.9841 1.56631 43.0145C1.37072 43.0449 1.18516 43.1213 1.02489 43.2375C0.862058 43.3513 0.729235 43.5028 0.6378 43.6792C0.546364 43.8555 0.499042 44.0514 0.499889 44.25V66.75C0.499042 66.9486 0.546364 67.1445 0.6378 67.3209C0.729235 67.4972 0.862058 67.6487 1.02489 67.7625C1.23337 67.9202 1.48852 68.0038 1.74989 68C1.88545 67.9976 2.02004 67.9765 2.14989 67.9375L7.99989 65.9875V66.75C7.99989 67.0815 8.13159 67.3995 8.36601 67.6339C8.60043 67.8683 8.91837 68 9.24989 68H14.2499C14.5646 67.9976 14.8669 67.8766 15.0963 67.6611C15.3257 67.4456 15.4654 67.1515 15.4874 66.8375L25.9749 75.225C26.1937 75.4035 26.4675 75.5007 26.7499 75.5H62.9999C64.326 75.5 65.5977 74.9732 66.5354 74.0355C67.4731 73.0979 67.9999 71.8261 67.9999 70.5C67.9999 69.1739 67.4731 67.9022 66.5354 66.9645C65.5977 66.0268 64.326 65.5 62.9999 65.5H38.4374L29.0624 58H39.1249C40.0852 59.4932 41.3957 60.7291 42.9424 61.6005C44.4891 62.4719 46.2252 62.9523 47.9999 63ZM7.99989 63.35L2.99989 65.0125V45.9875L7.99989 47.65V63.35ZM12.9999 65.5H10.4999V45.5H12.9999V65.5ZM54.0749 14.2375C54.2811 14.2671 54.4914 14.2457 54.6874 14.175L62.2749 11.325L59.7374 19.25H48.8124L47.1999 13.25L54.0749 14.2375ZM47.9999 21.75H60.4999C60.8314 21.75 61.1494 21.8817 61.3838 22.1161C61.6182 22.3505 61.7499 22.6685 61.7499 23C61.7499 23.3315 61.6182 23.6495 61.3838 23.8839C61.1494 24.1183 60.8314 24.25 60.4999 24.25H47.9999C47.6684 24.25 47.3504 24.1183 47.116 23.8839C46.8816 23.6495 46.7499 23.3315 46.7499 23C46.7499 22.6685 46.8816 22.3505 47.116 22.1161C47.3504 21.8817 47.6684 21.75 47.9999 21.75ZM39.2499 45.5C39.2499 39.25 43.4374 30.7875 48.4499 26.75H60.0499C65.0624 30.7875 69.2499 39.25 69.2499 45.5V50.5C69.2499 55.825 65.1624 60.5 60.4999 60.5H47.9999C46.9238 60.4783 45.8629 60.2415 44.8797 59.8036C43.8965 59.3656 43.0108 58.7354 42.2749 57.95C43.1674 57.8238 43.9846 57.3804 44.5768 56.7009C45.1691 56.0214 45.4967 55.1514 45.4999 54.25V51.75C45.5015 51.5234 45.4405 51.3008 45.3236 51.1067C45.2067 50.9126 45.0384 50.7545 44.8374 50.65L39.2499 47.6625V45.5ZM24.7249 57.725L37.2249 67.725C37.4437 67.9035 37.7175 68.0007 37.9999 68H62.9999C63.6629 68 64.2988 68.2634 64.7677 68.7322C65.2365 69.2011 65.4999 69.837 65.4999 70.5C65.4999 71.163 65.2365 71.7989 64.7677 72.2678C64.2988 72.7366 63.6629 73 62.9999 73H27.1874L15.4999 63.65V47.5625L25.4499 43.1375L42.9999 52.5V54.25C42.9999 54.5815 42.8682 54.8995 42.6338 55.1339C42.3994 55.3683 42.0814 55.5 41.7499 55.5H25.4999C25.2415 55.501 24.9898 55.5821 24.7793 55.7321C24.5689 55.8821 24.4102 56.0936 24.3249 56.3375C24.2366 56.5814 24.2277 56.847 24.2996 57.0962C24.3714 57.3454 24.5203 57.5656 24.7249 57.725Z" fill="#793AFF"/>
<path d="M55.5 41.75H53C52.0054 41.75 51.0516 41.3549 50.3484 40.6517C49.6451 39.9484 49.25 38.9946 49.25 38C49.25 37.0055 49.6451 36.0516 50.3484 35.3484C51.0516 34.6451 52.0054 34.25 53 34.25H60.5V31.75H55.5V29.25H53V31.75C51.3424 31.75 49.7527 32.4085 48.5806 33.5806C47.4085 34.7527 46.75 36.3424 46.75 38C46.75 39.6576 47.4085 41.2473 48.5806 42.4194C49.7527 43.5915 51.3424 44.25 53 44.25H55.5C56.4946 44.25 57.4484 44.6451 58.1516 45.3484C58.8549 46.0516 59.25 47.0055 59.25 48C59.25 48.9946 58.8549 49.9484 58.1516 50.6517C57.4484 51.3549 56.4946 51.75 55.5 51.75H48V54.25H53V56.75H55.5V54.25C57.1576 54.25 58.7473 53.5915 59.9194 52.4194C61.0915 51.2473 61.75 49.6576 61.75 48C61.75 46.3424 61.0915 44.7527 59.9194 43.5806C58.7473 42.4085 57.1576 41.75 55.5 41.75Z" fill="#793AFF"/>
</svg>
