<svg width="30" height="32" viewBox="0 0 30 32" fill="none" xmlns="http://www.w3.org/2000/svg">
<path d="M3.77326 28.2613H22.7853L21.8773 25.3213L24.0493 27.1853L26.0399 28.9693L29.6666 32V3.3C29.5759 1.516 28.0399 0 26.1359 0L3.77993 0.004C1.87726 0.004 0.33326 1.52267 0.33326 3.30667V24.96C0.33326 26.8413 1.87459 28.2613 3.77326 28.2613ZM17.8373 7.57733L17.7933 7.59333L17.8093 7.57733H17.8373ZM7.66259 9.26933C10.1066 7.49067 12.3719 7.576 12.3719 7.576L12.5546 7.756C9.56393 8.46933 8.20793 9.80533 8.20793 9.80533C8.20793 9.80533 8.57059 9.628 9.20393 9.35733C13.2319 7.77333 17.6306 7.888 21.7026 9.89333C21.7026 9.89333 20.3439 8.644 17.5373 7.844L17.7853 7.6C18.1733 7.60133 20.2266 7.67333 22.4239 9.28C22.4239 9.28 24.8826 13.48 24.8826 18.64C24.8013 18.5413 23.3573 20.8613 19.6413 20.9413C19.6413 20.9413 19.0119 20.2293 18.5639 19.608C20.7373 18.984 21.5506 17.736 21.5506 17.736C20.8373 18.1853 20.1866 18.452 19.6586 18.7187C18.8466 19.076 18.0333 19.252 17.2213 19.432C13.3759 20.056 11.2173 19.012 9.17726 18.184L8.47993 17.8293C8.47993 17.8293 9.29193 19.0773 11.3786 19.7013C10.8306 20.3267 10.2879 21.0373 10.2879 21.0373C6.57326 20.9493 5.21859 18.6293 5.21859 18.6293C5.21859 13.4613 7.66259 9.26933 7.66259 9.26933Z" fill="white"/>
</svg>
